<svg width="23" height="21" viewBox="0 0 23 21" fill="none" xmlns="http://www.w3.org/2000/svg">
<path d="M18.5 6.5V4.5H16.5V2.5H18.5V0.5H20.5V2.5H22.5V4.5H20.5V6.5H18.5ZM10.5 17C11.75 17 12.8125 16.5625 13.6875 15.6875C14.5625 14.8125 15 13.75 15 12.5C15 11.25 14.5625 10.1875 13.6875 9.3125C12.8125 8.4375 11.75 8 10.5 8C9.25 8 8.1875 8.4375 7.3125 9.3125C6.4375 10.1875 6 11.25 6 12.5C6 13.75 6.4375 14.8125 7.3125 15.6875C8.1875 16.5625 9.25 17 10.5 17ZM10.5 15C9.8 15 9.20833 14.7583 8.725 14.275C8.24167 13.7917 8 13.2 8 12.5C8 11.8 8.24167 11.2083 8.725 10.725C9.20833 10.2417 9.8 10 10.5 10C11.2 10 11.7917 10.2417 12.275 10.725C12.7583 11.2083 13 11.8 13 12.5C13 13.2 12.7583 13.7917 12.275 14.275C11.7917 14.7583 11.2 15 10.5 15ZM2.5 20.5C1.95 20.5 1.47917 20.3042 1.0875 19.9125C0.695833 19.5208 0.5 19.05 0.5 18.5V6.5C0.5 5.95 0.695833 5.47917 1.0875 5.0875C1.47917 4.69583 1.95 4.5 2.5 4.5H5.65L7.5 2.5H14.5V6.5H16.5V8.5H20.5V18.5C20.5 19.05 20.3042 19.5208 19.9125 19.9125C19.5208 20.3042 19.05 20.5 18.5 20.5H2.5Z" fill="white"/>
</svg>
