<svg width="20" height="20" viewBox="0 0 20 20" fill="none" xmlns="http://www.w3.org/2000/svg">
<path d="M10 0C15.5228 0 20 4.47715 20 10C20 15.5228 15.5228 20 10 20C4.47715 20 0 15.5228 0 10H2C2 14.4183 5.58172 18 10 18C14.4183 18 18 14.4183 18 10C18 5.58172 14.4183 2 10 2C7.25022 2 4.82447 3.38734 3.38451 5.50024L6 5.5V7.5H0V1.5H2L1.99989 3.99918C3.82434 1.57075 6.72873 0 10 0ZM6.5 13.5V6.5H8V13.5H6.5ZM10 6.5H14.75V8H11.5V9.25H12.875C14.0486 9.25 15 10.2014 15 11.375C15 12.5486 14.0486 13.5 12.875 13.5H10V12H12.875C13.2202 12 13.5 11.7202 13.5 11.375C13.5 11.0298 13.2202 10.75 12.875 10.75H10V6.5Z" fill="white"/>
</svg>
