<svg width="20" height="20" viewBox="0 0 20 20" fill="none" xmlns="http://www.w3.org/2000/svg">
<path d="M10 0C4.47715 0 0 4.47715 0 10C0 15.5228 4.47715 20 10 20C15.5228 20 20 15.5228 20 10H18C18 14.4183 14.4183 18 10 18C5.58172 18 2 14.4183 2 10C2 5.58172 5.58172 2 10 2C12.7498 2 15.1755 3.38734 16.6155 5.50024L14 5.5V6.5H10V10.75H12.875C13.2202 10.75 13.5 11.0298 13.5 11.375C13.5 11.7202 13.2202 12 12.875 12H10V13.5H12.875C14.0486 13.5 15 12.5486 15 11.375C15 10.2014 14.0486 9.25 12.875 9.25H11.5V8H14.75V7.5H20V1.5H18L18.0001 3.99918C16.1757 1.57075 13.2713 0 10 0ZM6.5 6.5H8V13.5H6.5V6.5Z" fill="white"/>
</svg>
