<svg width="38" height="38" viewBox="0 0 38 38" fill="none" xmlns="http://www.w3.org/2000/svg">
<path d="M18.9993 4.75C17.3196 4.75 15.7087 5.41726 14.521 6.60499C13.3333 7.79272 12.666 9.40363 12.666 11.0833H15.8327C16.0426 11.0833 16.244 11.1667 16.3925 11.3152C16.5409 11.4637 16.6243 11.665 16.6243 11.875C16.6243 12.085 16.5409 12.2863 16.3925 12.4348C16.244 12.5833 16.0426 12.6667 15.8327 12.6667H12.666V14.25H15.8327C16.0426 14.25 16.244 14.3334 16.3925 14.4819C16.5409 14.6303 16.6243 14.8317 16.6243 15.0417C16.6243 15.2516 16.5409 15.453 16.3925 15.6015C16.244 15.7499 16.0426 15.8333 15.8327 15.8333H12.666V17.4167H15.8327C16.0426 17.4167 16.244 17.5001 16.3925 17.6485C16.5409 17.797 16.6243 17.9984 16.6243 18.2083C16.6243 18.4183 16.5409 18.6197 16.3925 18.7681C16.244 18.9166 16.0426 19 15.8327 19H12.666C12.666 20.6797 13.3333 22.2906 14.521 23.4783C15.7087 24.6661 17.3196 25.3333 18.9993 25.3333C20.6791 25.3333 22.29 24.6661 23.4777 23.4783C24.6654 22.2906 25.3327 20.6797 25.3327 19H22.166C21.9561 19 21.7547 18.9166 21.6062 18.7681C21.4578 18.6197 21.3743 18.4183 21.3743 18.2083C21.3743 17.9984 21.4578 17.797 21.6062 17.6485C21.7547 17.5001 21.9561 17.4167 22.166 17.4167H25.3327V15.8333H22.166C21.9561 15.8333 21.7547 15.7499 21.6062 15.6015C21.4578 15.453 21.3743 15.2516 21.3743 15.0417C21.3743 14.8317 21.4578 14.6303 21.6062 14.4819C21.7547 14.3334 21.9561 14.25 22.166 14.25H25.3327V12.6667H22.166C21.9561 12.6667 21.7547 12.5833 21.6062 12.4348C21.4578 12.2863 21.3743 12.085 21.3743 11.875C21.3743 11.665 21.4578 11.4637 21.6062 11.3152C21.7547 11.1667 21.9561 11.0833 22.166 11.0833H25.3327C25.3327 9.40363 24.6654 7.79272 23.4777 6.60499C22.29 5.41726 20.6791 4.75 18.9993 4.75Z" fill="#EF4849"/>
<path fill-rule="evenodd" clip-rule="evenodd" d="M18.2077 31.6668V27.7085H19.791V31.6668H18.2077ZM12.666 32.4585C12.666 32.2485 12.7494 32.0472 12.8979 31.8987C13.0464 31.7502 13.2477 31.6668 13.4577 31.6668H24.541C24.751 31.6668 24.9523 31.7502 25.1008 31.8987C25.2493 32.0472 25.3327 32.2485 25.3327 32.4585C25.3327 32.6685 25.2493 32.8698 25.1008 33.0183C24.9523 33.1668 24.751 33.2502 24.541 33.2502H13.4577C13.2477 33.2502 13.0464 33.1668 12.8979 33.0183C12.7494 32.8698 12.666 32.6685 12.666 32.4585Z" fill="#EF4849"/>
<path fill-rule="evenodd" clip-rule="evenodd" d="M9.86038 21.7057C10.0559 21.6297 10.2736 21.6343 10.4656 21.7186C10.6577 21.8029 10.8085 21.96 10.8848 22.1554C11.5091 23.7605 12.5953 25.1445 14.006 26.1324C15.4168 27.1202 17.0889 27.6676 18.8107 27.7052C20.5326 27.7428 22.2269 27.269 23.6795 26.3437C25.1321 25.4185 26.2777 24.0832 26.9715 22.5069C27.0134 22.4117 27.0736 22.3256 27.1488 22.2537C27.2239 22.1817 27.3125 22.1253 27.4095 22.0876C27.5064 22.0499 27.6099 22.0316 27.7139 22.0339C27.8179 22.0361 27.9204 22.0589 28.0157 22.1008C28.1109 22.1427 28.1969 22.2029 28.2689 22.2781C28.3408 22.3532 28.3973 22.4418 28.435 22.5388C28.4727 22.6357 28.491 22.7392 28.4887 22.8432C28.4864 22.9472 28.4637 23.0497 28.4218 23.145C27.6021 25.0083 26.2482 26.5867 24.5314 27.6805C22.8146 28.7743 20.812 29.3345 18.7769 29.2901C16.7417 29.2457 14.7654 28.5987 13.098 27.4311C11.4305 26.2634 10.1468 24.6274 9.40913 22.7301C9.33316 22.5345 9.33802 22.3166 9.42264 22.1245C9.50726 21.9324 9.66472 21.7818 9.86038 21.7057Z" fill="#EF4849"/>
</svg>
