<svg width="16" height="15" viewBox="0 0 16 15" fill="none" xmlns="http://www.w3.org/2000/svg">
<path d="M14.75 10.1594C14.3578 10.1594 13.9656 10.2729 13.625 10.5C12.9438 10.9542 12.0562 10.9542 11.375 10.5C10.6938 10.0458 9.80625 10.0458 9.125 10.5C8.44375 10.9542 7.55625 10.9542 6.875 10.5C6.19375 10.0458 5.30625 10.0458 4.625 10.5C3.94375 10.9542 3.05625 10.9542 2.375 10.5C2.03438 10.2729 1.64219 10.1594 1.25 10.1594M5.75 3V4.5M8 3V4.5M10.25 3V4.5M5.75 0.75H5.7575M8 0.75H8.0075M10.25 0.75H10.2575M14.75 14.25V9C14.75 8.17157 14.0784 7.5 13.25 7.5H2.75C1.92157 7.5 1.25 8.17157 1.25 9V14.25H14.75ZM12.5 7.5V6C12.5 5.17157 11.8284 4.5 11 4.5H5C4.17157 4.5 3.5 5.17157 3.5 6V7.5H12.5Z" stroke="white" stroke-linecap="round" stroke-linejoin="round"/>
</svg>
