<svg width="19" height="19" viewBox="0 0 19 19" fill="none" xmlns="http://www.w3.org/2000/svg">
<path d="M6.05525 14.7726H4.59873C2.36848 14.6133 1.36719 12.8989 1.36719 11.3742C1.36719 9.84941 2.36849 8.12743 4.56081 7.97571C4.87183 7.94536 5.14491 8.18811 5.16767 8.50672C5.19043 8.81774 4.9553 9.09083 4.6367 9.11359C3.16504 9.21979 2.50507 10.3273 2.50507 11.3818C2.50507 12.4362 3.16504 13.5437 4.6367 13.6499H6.05525C6.36627 13.6499 6.62419 13.9079 6.62419 14.2189C6.62419 14.5299 6.36627 14.7726 6.05525 14.7726Z" fill="#292D32"/>
<path d="M13.0396 14.7721C13.0244 14.7721 13.0168 14.7721 13.0017 14.7721C12.6906 14.7721 12.4024 14.5142 12.4024 14.2032C12.4024 13.877 12.6451 13.6342 12.9637 13.6342C13.8968 13.6342 14.7312 13.308 15.3836 12.7239C16.567 11.6922 16.6429 10.2054 16.3243 9.15856C16.0057 8.1193 15.1181 6.92832 13.5706 6.73867C13.3203 6.70833 13.123 6.51868 13.0775 6.26835C12.7741 4.44774 11.7955 3.18848 10.3087 2.73333C8.77633 2.25542 6.98604 2.72574 5.87092 3.89397C4.78614 5.02426 4.53581 6.60971 5.16543 8.35446C5.27164 8.65031 5.11996 8.9765 4.82411 9.0827C4.52826 9.1889 4.20205 9.03719 4.09585 8.74134C3.32967 6.60212 3.67863 4.55394 5.05167 3.11262C6.45506 1.64097 8.70806 1.05685 10.6425 1.64855C12.4176 2.19473 13.6692 3.6588 14.1243 5.69182C15.6719 6.04077 16.916 7.21658 17.409 8.83996C17.9476 10.6075 17.4621 12.4281 16.1346 13.5811C15.2926 14.3397 14.1926 14.7721 13.0396 14.7721Z" fill="#292D32"/>
<path d="M9.49859 17.0026C7.97383 17.0026 6.5477 16.1909 5.76636 14.8785C5.68291 14.7496 5.59947 14.5978 5.5312 14.431C5.27328 13.8924 5.13672 13.2779 5.13672 12.6407C5.13672 10.236 7.09387 8.27881 9.49859 8.27881C11.9033 8.27881 13.8605 10.236 13.8605 12.6407C13.8605 13.2855 13.7239 13.8924 13.4508 14.4537C13.3902 14.5978 13.3067 14.7496 13.2157 14.8937C12.4495 16.1909 11.0234 17.0026 9.49859 17.0026ZM9.49859 9.41669C7.7235 9.41669 6.2746 10.8656 6.2746 12.6407C6.2746 13.111 6.37322 13.551 6.56287 13.953C6.62355 14.082 6.67664 14.1882 6.73733 14.2868C7.31385 15.2654 8.36829 15.8647 9.491 15.8647C10.6137 15.8647 11.6681 15.2654 12.2371 14.302C12.3054 14.1882 12.3661 14.082 12.4116 13.9758C12.6164 13.5586 12.715 13.1186 12.715 12.6483C12.7226 10.8656 11.2737 9.41669 9.49859 9.41669Z" fill="#292D32"/>
<path d="M9.06611 13.9604C8.92198 13.9604 8.77787 13.9073 8.66408 13.7935L7.91304 13.0425C7.69305 12.8226 7.69305 12.4584 7.91304 12.2384C8.13303 12.0185 8.49715 12.0185 8.71714 12.2384L9.08129 12.6026L10.295 11.4799C10.5302 11.2674 10.8867 11.2826 11.0991 11.5102C11.3115 11.7378 11.2964 12.1019 11.0688 12.3143L9.45299 13.8087C9.33921 13.9073 9.20265 13.9604 9.06611 13.9604Z" fill="#292D32"/>
</svg>
