<svg width="12" height="12" viewBox="0 0 12 12" fill="none" xmlns="http://www.w3.org/2000/svg">
<mask id="mask0_387_27020" style="mask-type:alpha" maskUnits="userSpaceOnUse" x="0" y="0" width="12" height="12">
<rect width="12" height="12" fill="#D9D9D9"/>
</mask>
<g mask="url(#mask0_387_27020)">
<path d="M3.5 10.5C3.225 10.5 2.98958 10.4021 2.79375 10.2063C2.59792 10.0104 2.5 9.775 2.5 9.5V3C2.35833 3 2.23958 2.95208 2.14375 2.85625C2.04792 2.76042 2 2.64167 2 2.5C2 2.35833 2.04792 2.23958 2.14375 2.14375C2.23958 2.04792 2.35833 2 2.5 2H4.5C4.5 1.85833 4.54792 1.73958 4.64375 1.64375C4.73958 1.54792 4.85833 1.5 5 1.5H7C7.14167 1.5 7.26042 1.54792 7.35625 1.64375C7.45208 1.73958 7.5 1.85833 7.5 2H9.5C9.64167 2 9.76042 2.04792 9.85625 2.14375C9.95208 2.23958 10 2.35833 10 2.5C10 2.64167 9.95208 2.76042 9.85625 2.85625C9.76042 2.95208 9.64167 3 9.5 3V9.5C9.5 9.775 9.40208 10.0104 9.20625 10.2063C9.01042 10.4021 8.775 10.5 8.5 10.5H3.5ZM8.5 3H3.5V9.5H8.5V3ZM5 8.5C5.14167 8.5 5.26042 8.45208 5.35625 8.35625C5.45208 8.26042 5.5 8.14167 5.5 8V4.5C5.5 4.35833 5.45208 4.23958 5.35625 4.14375C5.26042 4.04792 5.14167 4 5 4C4.85833 4 4.73958 4.04792 4.64375 4.14375C4.54792 4.23958 4.5 4.35833 4.5 4.5V8C4.5 8.14167 4.54792 8.26042 4.64375 8.35625C4.73958 8.45208 4.85833 8.5 5 8.5ZM7 8.5C7.14167 8.5 7.26042 8.45208 7.35625 8.35625C7.45208 8.26042 7.5 8.14167 7.5 8V4.5C7.5 4.35833 7.45208 4.23958 7.35625 4.14375C7.26042 4.04792 7.14167 4 7 4C6.85833 4 6.73958 4.04792 6.64375 4.14375C6.54792 4.23958 6.5 4.35833 6.5 4.5V8C6.5 8.14167 6.54792 8.26042 6.64375 8.35625C6.73958 8.45208 6.85833 8.5 7 8.5Z" fill="#FEFEFE"/>
</g>
</svg>
