<svg width="10" height="10" viewBox="0 0 10 10" fill="none" xmlns="http://www.w3.org/2000/svg">
<path d="M1.5 8.5H2.2125L7.1 3.6125L6.3875 2.9L1.5 7.7875V8.5ZM1 9.5C0.858333 9.5 0.739583 9.45208 0.64375 9.35625C0.547917 9.26042 0.5 9.14167 0.5 9V7.7875C0.5 7.65417 0.525 7.52708 0.575 7.40625C0.625 7.28542 0.695833 7.17917 0.7875 7.0875L7.1 0.7875C7.2 0.695833 7.31042 0.625 7.43125 0.575C7.55208 0.525 7.67917 0.5 7.8125 0.5C7.94583 0.5 8.075 0.525 8.2 0.575C8.325 0.625 8.43333 0.7 8.525 0.8L9.2125 1.5C9.3125 1.59167 9.38542 1.7 9.43125 1.825C9.47708 1.95 9.5 2.075 9.5 2.2C9.5 2.33333 9.47708 2.46042 9.43125 2.58125C9.38542 2.70208 9.3125 2.8125 9.2125 2.9125L2.9125 9.2125C2.82083 9.30417 2.71458 9.375 2.59375 9.425C2.47292 9.475 2.34583 9.5 2.2125 9.5H1ZM6.7375 3.2625L6.3875 2.9L7.1 3.6125L6.7375 3.2625Z" fill="#FEFEFE"/>
</svg>
