<svg width="18" height="18" viewBox="0 0 18 18" fill="none" xmlns="http://www.w3.org/2000/svg">
<path d="M12.9987 1.66578L12.9991 1.66578C14.1107 1.66714 15.1864 2.13649 15.9873 2.98725C16.7896 3.83954 17.2484 5.00433 17.25 6.22823C17.2496 8.64768 15.9294 11.2481 13.0947 13.9593C11.8312 15.1629 10.4592 16.23 8.99924 17.1453C8.60567 16.9045 6.64644 15.6719 4.72874 13.7965C2.64006 11.7538 0.750223 9.09405 0.75 6.22774C0.751382 5.2603 1.03901 4.32184 1.5666 3.54506C2.09392 2.76867 2.83191 2.19585 3.67065 1.8986C4.50864 1.60162 5.41157 1.59203 6.25464 1.87091C7.09843 2.15003 7.84666 2.70662 8.38823 3.47109L9.00161 4.33691L9.61313 3.46979C10.0126 2.90337 10.5279 2.44802 11.1154 2.13641C11.7025 1.82493 12.3472 1.66464 12.9987 1.66578Z" stroke="#E9A3A4" stroke-width="1.5"/>
</svg>
