<svg width="11" height="16" viewBox="0 0 11 16" fill="none" xmlns="http://www.w3.org/2000/svg">
<path d="M10.25 0.75L6.5 4.5M10.25 0.75H7.25M10.25 0.75V3.75M4.25 10.5V15M2 12.75H6.5M1.25 6.75C1.25 7.54565 1.56607 8.30871 2.12868 8.87132C2.69129 9.43393 3.45435 9.75 4.25 9.75C5.04565 9.75 5.80871 9.43393 6.37132 8.87132C6.93393 8.30871 7.25 7.54565 7.25 6.75C7.25 5.95435 6.93393 5.19129 6.37132 4.62868C5.80871 4.06607 5.04565 3.75 4.25 3.75C3.45435 3.75 2.69129 4.06607 2.12868 4.62868C1.56607 5.19129 1.25 5.95435 1.25 6.75Z" stroke="white" stroke-linecap="round" stroke-linejoin="round"/>
</svg>
