<svg width="20" height="21" viewBox="0 0 20 21" fill="none" xmlns="http://www.w3.org/2000/svg">
<mask id="path-1-inside-1_355_21953" fill="white">
<path fill-rule="evenodd" clip-rule="evenodd" d="M10.0004 20.0157C15.3023 20.0157 19.6004 15.7176 19.6004 10.4157C19.6004 5.11374 15.3023 0.815674 10.0004 0.815674C4.69846 0.815674 0.400391 5.11374 0.400391 10.4157C0.400391 15.7176 4.69846 20.0157 10.0004 20.0157ZM11.0004 5.61567C11.0004 5.06339 10.5527 4.61567 10.0004 4.61567C9.44811 4.61567 9.00039 5.06339 9.00039 5.61567V10.4157C9.00039 10.6809 9.10575 10.9352 9.29328 11.1228L12.6874 14.5169C13.0779 14.9074 13.7111 14.9074 14.1016 14.5169C14.4921 14.1264 14.4921 13.4932 14.1016 13.1027L11.0004 10.0015V5.61567Z"/>
</mask>
<path d="M9.29328 11.1228L10.0004 10.4157L9.29328 11.1228ZM12.6874 14.5169L11.9803 15.224L12.6874 14.5169ZM11.0004 10.0015H10.0004V10.4157L10.2933 10.7086L11.0004 10.0015ZM18.6004 10.4157C18.6004 15.1653 14.75 19.0157 10.0004 19.0157V21.0157C15.8546 21.0157 20.6004 16.2699 20.6004 10.4157H18.6004ZM10.0004 1.81567C14.75 1.81567 18.6004 5.66603 18.6004 10.4157H20.6004C20.6004 4.56146 15.8546 -0.184326 10.0004 -0.184326V1.81567ZM1.40039 10.4157C1.40039 5.66603 5.25074 1.81567 10.0004 1.81567V-0.184326C4.14617 -0.184326 -0.599609 4.56146 -0.599609 10.4157H1.40039ZM10.0004 19.0157C5.25074 19.0157 1.40039 15.1653 1.40039 10.4157H-0.599609C-0.599609 16.2699 4.14617 21.0157 10.0004 21.0157V19.0157ZM10.0004 5.61567H12.0004C12.0004 4.5111 11.105 3.61567 10.0004 3.61567V5.61567ZM10.0004 5.61567V3.61567C8.89582 3.61567 8.00039 4.5111 8.00039 5.61567H10.0004ZM10.0004 10.4157V5.61567H8.00039V10.4157H10.0004ZM10.0004 10.4157V10.4157H8.00039C8.00039 10.9461 8.21111 11.4548 8.58618 11.8299L10.0004 10.4157ZM13.3945 13.8098L10.0004 10.4157L8.58618 11.8299L11.9803 15.224L13.3945 13.8098ZM13.3945 13.8098L11.9803 15.224C12.7613 16.005 14.0277 16.005 14.8087 15.224L13.3945 13.8098ZM13.3945 13.8098L14.8087 15.224C15.5898 14.443 15.5898 13.1766 14.8087 12.3956L13.3945 13.8098ZM10.2933 10.7086L13.3945 13.8098L14.8087 12.3956L11.7075 9.29435L10.2933 10.7086ZM10.0004 5.61567V10.0015H12.0004V5.61567H10.0004Z" fill="#E9A3A4" mask="url(#path-1-inside-1_355_21953)"/>
</svg>
