<svg width="18" height="18" viewBox="0 0 18 18" fill="none" xmlns="http://www.w3.org/2000/svg">
<path d="M17.1091 6.88238L11.5783 1.35093C10.8938 0.668417 9.96664 0.285156 9.00001 0.285156C8.03338 0.285156 7.10619 0.668417 6.42168 1.35093L0.890946 6.88238C0.68709 7.08493 0.525466 7.32594 0.415444 7.59141C0.305422 7.85689 0.24919 8.14157 0.250009 8.42895V15.5872C0.250009 16.1673 0.480477 16.7237 0.890713 17.134C1.30095 17.5442 1.85735 17.7747 2.43751 17.7747H15.5625C16.1427 17.7747 16.6991 17.5442 17.1093 17.134C17.5195 16.7237 17.75 16.1673 17.75 15.5872V8.42895C17.7508 8.14157 17.6946 7.85689 17.5846 7.59141C17.4746 7.32594 17.3129 7.08493 17.1091 6.88238ZM11.1875 16.3163H6.81251V13.4478C6.81251 12.8676 7.04298 12.3112 7.45321 11.901C7.86345 11.4908 8.41985 11.2603 9.00001 11.2603C9.58017 11.2603 10.1366 11.4908 10.5468 11.901C10.957 12.3112 11.1875 12.8676 11.1875 13.4478V16.3163ZM16.2917 15.5872C16.2917 15.7806 16.2149 15.966 16.0781 16.1028C15.9414 16.2395 15.7559 16.3163 15.5625 16.3163H12.6458V13.4478C12.6458 12.4809 12.2617 11.5535 11.578 10.8698C10.8943 10.1861 9.96695 9.80197 9.00001 9.80197C8.03308 9.80197 7.10574 10.1861 6.42202 10.8698C5.73829 11.5535 5.35418 12.4809 5.35418 13.4478V16.3163H2.43751C2.24412 16.3163 2.05866 16.2395 1.92191 16.1028C1.78517 15.966 1.70834 15.7806 1.70834 15.5872V8.42895C1.70902 8.2357 1.78577 8.0505 1.92199 7.91343L7.45272 2.38415C7.86375 1.97504 8.42008 1.74536 9.00001 1.74536C9.57994 1.74536 10.1363 1.97504 10.5473 2.38415L16.078 7.91561C16.2137 8.05215 16.2904 8.23646 16.2917 8.42895V15.5872Z" fill="#E9A3A4"/>
</svg>
