<svg width="18" height="18" viewBox="0 0 18 18" fill="none" xmlns="http://www.w3.org/2000/svg">
<path d="M16.8591 6.61273L11.3283 1.08127C10.6438 0.398764 9.71664 0.0155029 8.75001 0.0155029C7.78338 0.0155029 6.85619 0.398764 6.17168 1.08127L0.640946 6.61273C0.43709 6.81528 0.275466 7.05628 0.165444 7.32176C0.055422 7.58724 -0.000809667 7.87192 8.80796e-06 8.15929V15.3175C8.80796e-06 15.8977 0.230477 16.4541 0.640713 16.8643C1.05095 17.2746 1.60735 17.505 2.18751 17.505H15.3125C15.8927 17.505 16.4491 17.2746 16.8593 16.8643C17.2695 16.4541 17.5 15.8977 17.5 15.3175V8.15929C17.5008 7.87192 17.4446 7.58724 17.3346 7.32176C17.2246 7.05628 17.0629 6.81528 16.8591 6.61273ZM10.9375 16.0467H6.56251V13.1781C6.56251 12.598 6.79298 12.0416 7.20321 11.6314C7.61345 11.2211 8.16985 10.9906 8.75001 10.9906C9.33017 10.9906 9.88657 11.2211 10.2968 11.6314C10.707 12.0416 10.9375 12.598 10.9375 13.1781V16.0467ZM16.0417 15.3175C16.0417 15.5109 15.9649 15.6964 15.8281 15.8331C15.6914 15.9699 15.5059 16.0467 15.3125 16.0467H12.3958V13.1781C12.3958 12.2112 12.0117 11.2839 11.328 10.6002C10.6443 9.91643 9.71695 9.53231 8.75001 9.53231C7.78308 9.53231 6.85574 9.91643 6.17202 10.6002C5.48829 11.2839 5.10418 12.2112 5.10418 13.1781V16.0467H2.18751C1.99412 16.0467 1.80866 15.9699 1.67191 15.8331C1.53517 15.6964 1.45834 15.5109 1.45834 15.3175V8.15929C1.45902 7.96605 1.53577 7.78084 1.67199 7.64377L7.20272 2.1145C7.61375 1.70539 8.17008 1.47571 8.75001 1.47571C9.32994 1.47571 9.88627 1.70539 10.2973 2.1145L15.828 7.64596C15.9637 7.78249 16.0404 7.96681 16.0417 8.15929V15.3175Z" fill="white"/>
</svg>
