<svg width="16" height="16" viewBox="0 0 16 16" fill="none" xmlns="http://www.w3.org/2000/svg">
<path d="M16 8.1C16 7.05 15.15 6.5 14 6.5H10.65C10.9 5.6 11 4.75 11 4C11 1.1 10.2 0.5 9.5 0.5C9.05 0.5 8.7 0.55 8.25 0.8C8.1 0.9 8.05 1 8 1.15L7.5 3.85C6.95 5.25 5.6 6.5 4.5 7.35V14.5C4.9 14.5 5.3 14.7 5.8 14.95C6.35 15.2 6.9 15.5 7.5 15.5H12.25C13.25 15.5 14 14.7 14 14C14 13.85 14 13.75 13.95 13.65C14.55 13.4 15 12.9 15 12.25C15 11.95 14.95 11.7 14.85 11.45C15.25 11.2 15.6 10.75 15.6 10.25C15.6 9.95 15.45 9.65 15.3 9.4C15.7 9.1 16 8.6 16 8.1ZM14.95 8.1C14.95 8.75 14.3 8.8 14.2 9.1C14.1 9.45 14.6 9.55 14.6 10.15C14.6 10.75 13.85 10.75 13.75 11.1C13.65 11.5 14 11.6 14 12.2V12.3C13.9 12.8 13.15 12.85 13 13.05C12.85 13.3 13 13.4 13 13.95C13 14.25 12.65 14.45 12.25 14.45H7.5C7.1 14.45 6.7 14.25 6.2 14C5.8 13.8 5.4 13.6 5 13.5V8.25C6.25 7.3 7.85 5.9 8.45 4.15V4.05L8.9 1.55C9.1 1.5 9.25 1.5 9.5 1.5C9.6 1.5 10 2.1 10 4C10 4.75 9.85 5.55 9.6 6.5H9.5C9.2 6.5 9 6.7 9 7C9 7.3 9.2 7.5 9.5 7.5H14C14.5 7.5 14.95 7.75 14.95 8.1Z" fill="white"/>
<path d="M4 15.5H1C0.45 15.5 0 15.05 0 14.5V7.5C0 6.95 0.45 6.5 1 6.5H4C4.55 6.5 5 6.95 5 7.5V14.5C5 15.05 4.55 15.5 4 15.5ZM1 7.5V14.5H4V7.5H1Z" fill="white"/>
</svg>
