<svg width="11" height="18" viewBox="0 0 11 18" fill="none" xmlns="http://www.w3.org/2000/svg">
<path d="M0.538735 7.00391C0.681617 7.00391 0.818646 7.06067 0.919678 7.1617C1.02071 7.26273 1.07747 7.39976 1.07747 7.54264L1.07747 8.62011C1.07747 9.76316 1.53155 10.8594 2.33981 11.6677C3.14806 12.4759 4.2443 12.93 5.38735 12.93C6.5304 12.93 7.62664 12.4759 8.4349 11.6677C9.24316 10.8594 9.69723 9.76316 9.69723 8.62011V7.54264C9.69723 7.39976 9.75399 7.26273 9.85503 7.1617C9.95606 7.06067 10.0931 7.00391 10.236 7.00391C10.3789 7.00391 10.5159 7.06067 10.6169 7.1617C10.7179 7.26273 10.7747 7.39976 10.7747 7.54264V8.62011C10.7747 9.95567 10.2787 11.2436 9.38274 12.2341C8.48683 13.2246 7.25495 13.847 5.92609 13.9805V16.1624H9.1585C9.30138 16.1624 9.43841 16.2192 9.53944 16.3202C9.64047 16.4212 9.69723 16.5583 9.69723 16.7011C9.69723 16.844 9.64047 16.9811 9.53944 17.0821C9.43841 17.1831 9.30138 17.2399 9.1585 17.2399H1.61621C1.47332 17.2399 1.33629 17.1831 1.23526 17.0821C1.13423 16.9811 1.07747 16.844 1.07747 16.7011C1.07747 16.5583 1.13423 16.4212 1.23526 16.3202C1.33629 16.2192 1.47332 16.1624 1.61621 16.1624H4.84862V13.9805C3.51976 13.847 2.28787 13.2246 1.39196 12.2341C0.49605 11.2436 -1.6778e-05 9.95567 4.25607e-10 8.62011L4.25607e-10 7.54264C4.25608e-10 7.39976 0.0567595 7.26273 0.157792 7.1617C0.258824 7.06067 0.395854 7.00391 0.538735 7.00391Z" fill="black"/>
<path d="M7.54165 8.61976C7.54165 9.19129 7.31461 9.73941 6.91048 10.1435C6.50635 10.5477 5.95823 10.7747 5.38671 10.7747C4.81518 10.7747 4.26706 10.5477 3.86293 10.1435C3.4588 9.73941 3.23177 9.19129 3.23177 8.61976L3.23177 3.23241C3.23177 2.66089 3.4588 2.11277 3.86293 1.70864C4.26706 1.30451 4.81518 1.07747 5.38671 1.07747C5.95823 1.07747 6.50635 1.30451 6.91048 1.70864C7.31461 2.11277 7.54165 2.66089 7.54165 3.23241L7.54165 8.61976ZM5.38671 0C4.52942 0 3.70724 0.340557 3.10105 0.946751C2.49485 1.55295 2.1543 2.37512 2.1543 3.23241L2.1543 8.61976C2.1543 9.47705 2.49485 10.2992 3.10105 10.9054C3.70724 11.5116 4.52942 11.8522 5.38671 11.8522C6.244 11.8522 7.06617 11.5116 7.67237 10.9054C8.27856 10.2992 8.61912 9.47705 8.61912 8.61976V3.23241C8.61912 2.37512 8.27856 1.55295 7.67237 0.946751C7.06617 0.340557 6.244 0 5.38671 0V0Z" fill="black"/>
</svg>
