<svg width="12" height="18" viewBox="0 0 12 18" fill="none" xmlns="http://www.w3.org/2000/svg">
<path d="M1.34147 7.64844C1.48435 7.64844 1.62138 7.7052 1.72241 7.80623C1.82345 7.90726 1.8802 8.04429 1.8802 8.18717L1.8802 9.26464C1.8802 10.4077 2.33428 11.5039 3.14254 12.3122C3.9508 13.1204 5.04703 13.5745 6.19009 13.5745C7.33314 13.5745 8.42937 13.1204 9.23763 12.3122C10.0459 11.5039 10.5 10.4077 10.5 9.26464V8.18717C10.5 8.04429 10.5567 7.90726 10.6578 7.80623C10.7588 7.7052 10.8958 7.64844 11.0387 7.64844C11.1816 7.64844 11.3186 7.7052 11.4196 7.80623C11.5207 7.90726 11.5774 8.04429 11.5774 8.18717V9.26464C11.5775 10.6002 11.0814 11.8882 10.1855 12.8786C9.28957 13.8691 8.05768 14.4915 6.72882 14.6251V16.8069H9.96123C10.1041 16.8069 10.2411 16.8637 10.3422 16.9647C10.4432 17.0658 10.5 17.2028 10.5 17.3457C10.5 17.4886 10.4432 17.6256 10.3422 17.7266C10.2411 17.8276 10.1041 17.8844 9.96123 17.8844H2.41894C2.27606 17.8844 2.13903 17.8276 2.038 17.7266C1.93696 17.6256 1.8802 17.4886 1.8802 17.3457C1.8802 17.2028 1.93696 17.0658 2.038 16.9647C2.13903 16.8637 2.27606 16.8069 2.41894 16.8069H5.65135V14.6251C4.32249 14.4915 3.09061 13.8691 2.1947 12.8786C1.29878 11.8882 0.802718 10.6002 0.802734 9.26464L0.802734 8.18717C0.802734 8.04429 0.859494 7.90726 0.960526 7.80623C1.06156 7.7052 1.19859 7.64844 1.34147 7.64844Z" fill="white"/>
<path d="M8.34438 9.2643C8.34438 9.83582 8.11735 10.3839 7.71322 10.7881C7.30909 11.1922 6.76097 11.4192 6.18944 11.4192C5.61792 11.4192 5.0698 11.1922 4.66567 10.7881C4.26154 10.3839 4.0345 9.83582 4.0345 9.2643L4.0345 3.87694C4.0345 3.30542 4.26154 2.7573 4.66567 2.35317C5.0698 1.94904 5.61792 1.722 6.18944 1.722C6.76097 1.722 7.30909 1.94904 7.71322 2.35317C8.11735 2.7573 8.34438 3.30542 8.34438 3.87694V9.2643ZM6.18944 0.644531C5.33215 0.644531 4.50998 0.985088 3.90378 1.59128C3.29759 2.19748 2.95703 3.01965 2.95703 3.87694L2.95703 9.2643C2.95703 10.1216 3.29759 10.9438 3.90378 11.55C4.50998 12.1562 5.33215 12.4967 6.18944 12.4967C7.04673 12.4967 7.86891 12.1562 8.4751 11.55C9.0813 10.9438 9.42185 10.1216 9.42185 9.2643V3.87694C9.42185 3.01965 9.0813 2.19748 8.4751 1.59128C7.86891 0.985088 7.04673 0.644531 6.18944 0.644531V0.644531Z" fill="white"/>
</svg>
