<svg width="11" height="14" viewBox="0 0 11 14" fill="none" xmlns="http://www.w3.org/2000/svg">
<path d="M4.0709 8.41367C3.06214 7.88537 2.36719 6.8151 2.36719 5.57995C2.36719 3.81714 3.77969 2.39453 5.49977 2.39453C7.21988 2.39453 8.63237 3.81712 8.63237 5.57995C8.63237 6.8151 7.93748 7.88531 6.9287 8.41364V8.28597C7.88348 7.76783 8.53234 6.74862 8.53232 5.57995L4.0709 8.41367ZM4.0709 8.41367V8.28598C3.11606 7.76784 2.46721 6.74862 2.46721 5.57995C2.46721 3.89387 3.82038 2.51056 5.49977 2.51056C7.17912 2.51056 8.53231 3.89386 8.53232 5.57993L4.0709 8.41367Z" fill="white" stroke="white"/>
<path d="M5.49999 0.5C8.24976 0.5 10.5 2.77249 10.5 5.57998C10.5 7.87982 8.98808 9.82175 6.92887 10.447V10.3277C8.93932 9.70588 10.3999 7.81076 10.3999 5.57998C10.3999 2.84924 8.20906 0.616026 5.49996 0.616026C2.79089 0.616026 0.600002 2.84924 0.600002 5.57998C0.600002 7.81075 2.06062 9.70588 4.07103 10.3277V10.447C2.01188 9.82175 0.5 7.87985 0.5 5.57998C0.5 2.77249 2.75022 0.5 5.49999 0.5Z" fill="white" stroke="white"/>
<path d="M6.4289 7.13753L6.16689 6.71167C6.12651 6.73652 6.0824 6.76002 6.03453 6.78236C5.99178 6.80226 5.94792 6.8198 5.90293 6.83493L5.56223 6.94944V7.30887V8.08464V9.22095V10.0061V11.1309V13.4998H5.4378V11.1309V10.0061V9.22095V8.72095H5.43776V8.08464V7.30887V6.94948L5.09711 6.83494C5.05202 6.81978 5.00811 6.80222 4.96552 6.78239L4.96511 6.7822C4.91784 6.76023 4.87389 6.7368 4.83334 6.71183C4.45765 6.48038 4.20508 6.06029 4.20508 5.57983C4.20508 4.845 4.79312 4.25879 5.49997 4.25879C6.20682 4.25879 6.7949 4.845 6.7949 5.57983C6.7949 6.06024 6.5423 6.48033 6.16659 6.71186L6.4289 7.13753ZM6.4289 7.13753C6.37002 7.17376 6.30862 7.20624 6.24556 7.23564M6.4289 7.13753L6.24556 7.23564M6.24556 7.23564C6.18608 7.26333 6.12494 7.28779 6.06223 7.30887V8.08464V9.22095V10.0061V11.1309V13.4998L6.24556 7.23564ZM4.34785 5.2633L4.34787 5.26323C4.37845 5.1502 4.42487 5.04351 4.48509 4.94573L4.34785 5.2633ZM4.34785 5.2633C4.32153 5.36061 4.30513 5.46677 4.30515 5.57983L4.34785 5.2633ZM6.51504 4.94573L6.51524 4.94606C6.57491 5.04317 6.62154 5.14967 6.65227 5.26328L6.65228 5.2633C6.67861 5.36066 6.695 5.46682 6.695 5.57983C6.695 5.84293 6.61006 6.08614 6.46911 6.28323C6.25493 6.58287 5.90288 6.7848 5.50009 6.7848C5.0972 6.7848 4.74532 6.58271 4.5312 6.28342L6.51504 4.94573ZM6.51504 4.94573C6.30713 4.60796 5.93316 4.37479 5.50006 4.37479C5.06708 4.37479 4.69314 4.60786 4.4852 4.94554L6.51504 4.94573ZM4.30515 5.58002C4.30519 5.84316 4.3902 6.08635 4.53117 6.28338L4.30515 5.58002Z" fill="white" stroke="white"/>
</svg>
