<svg width="21" height="21" viewBox="0 0 21 21" fill="none" xmlns="http://www.w3.org/2000/svg">
<g clip-path="url(#clip0_311_20743)">
<path d="M18.072 14.7642L18.0912 14.797C18.1515 14.9127 18.1835 15.0413 18.184 15.1721C18.1845 15.316 18.1471 15.4574 18.0755 15.5822C18.0039 15.7069 17.9007 15.8105 17.7762 15.8826C17.6517 15.9547 17.5104 15.9926 17.3666 15.9926H17.3666H4.31767H4.31754C4.17366 15.9927 4.03233 15.9547 3.90782 15.8826C3.7833 15.8106 3.68003 15.7069 3.60842 15.5821C3.53681 15.4573 3.49942 15.3158 3.50001 15.172C3.5006 15.0281 3.53916 14.8869 3.61179 14.7627L3.61218 14.7621C4.15548 13.8297 4.75467 12.1427 4.75467 9.24631V8.58703C4.75467 8.58702 4.75467 8.58701 4.75467 8.587C4.75479 6.97259 5.39619 5.42435 6.53779 4.28283C7.67939 3.1413 9.22769 2.5 10.8421 2.5H10.8884C12.5024 2.52652 14.0411 3.1873 15.1717 4.33951C16.3033 5.49263 16.935 7.04513 16.93 8.66071V8.66225V9.24806C16.93 12.1443 17.5287 13.8318 18.072 14.7642Z" stroke="white"/>
<path d="M13.4714 18.3104V18.3106L13.4843 18.3102C13.5055 18.3097 13.5266 18.3134 13.5463 18.3211C13.566 18.3289 13.584 18.3405 13.5992 18.3553C13.6144 18.3701 13.6265 18.3878 13.6347 18.4073C13.643 18.4269 13.6472 18.4478 13.6472 18.4691C13.6472 18.4903 13.643 18.5113 13.6347 18.5308C13.6265 18.5503 13.6144 18.568 13.5992 18.5828C13.584 18.5976 13.566 18.6093 13.5463 18.617C13.5266 18.6247 13.5055 18.6284 13.4843 18.6279L13.4843 18.6277H13.4714H8.20124V18.6275L8.18836 18.6279C8.16715 18.6284 8.14606 18.6247 8.12631 18.617C8.10658 18.6093 8.08858 18.5976 8.07338 18.5828C8.05819 18.568 8.04612 18.5503 8.03788 18.5308C8.02964 18.5113 8.02539 18.4903 8.02539 18.4691C8.02539 18.4478 8.02964 18.4269 8.03788 18.4073C8.04612 18.3878 8.05819 18.3701 8.07338 18.3553C8.08858 18.3405 8.10658 18.3289 8.12631 18.3211C8.14606 18.3134 8.16715 18.3097 8.18836 18.3102L8.18835 18.3104H8.20124H13.4714Z" stroke="white"/>
</g>
<defs>
<clipPath id="clip0_311_20743">
<rect width="21" height="21" fill="white"/>
</clipPath>
</defs>
</svg>
