<svg width="16" height="15" viewBox="0 0 16 15" fill="none" xmlns="http://www.w3.org/2000/svg">
<path d="M1.25 2.25C1.25 1.42157 1.92157 0.75 2.75 0.75H5.20943C5.53225 0.75 5.81886 0.956573 5.92094 1.26283L7.0443 4.63291C7.16233 4.98699 7.00203 5.37398 6.6682 5.5409L4.97525 6.38737C5.80194 8.22091 7.27909 9.69806 9.11263 10.5247L9.9591 8.8318C10.126 8.49796 10.513 8.33767 10.8671 8.4557L14.2372 9.57906C14.5434 9.68114 14.75 9.96775 14.75 10.2906V12.75C14.75 13.5784 14.0784 14.25 13.25 14.25H12.5C6.2868 14.25 1.25 9.2132 1.25 3V2.25Z" stroke="white" stroke-linecap="round" stroke-linejoin="round"/>
</svg>
