<svg width="18" height="19" viewBox="0 0 18 19" fill="none" xmlns="http://www.w3.org/2000/svg">
<path d="M5.74447 11.8468L6.5 12.296V11.417V2.75C6.5 2.6837 6.52634 2.62011 6.57322 2.57322C6.62011 2.52634 6.6837 2.5 6.75 2.5H15.75C15.8163 2.5 15.8799 2.52634 15.9268 2.57322C15.9737 2.62011 16 2.6837 16 2.75V14C16 14.4945 15.8534 14.9778 15.5787 15.3889C15.304 15.8 14.9135 16.1205 14.4567 16.3097C13.9999 16.4989 13.4972 16.5484 13.0123 16.452C12.5273 16.3555 12.0819 16.1174 11.7322 15.7678C11.3826 15.4181 11.1445 14.9727 11.048 14.4877C10.9516 14.0028 11.0011 13.5001 11.1903 13.0433C11.3795 12.5865 11.7 12.196 12.1111 11.9213C12.5218 11.6469 13.0046 11.5003 13.4985 11.5C13.9373 11.5028 14.3673 11.6225 14.7445 11.8468L15.5 12.296V11.417V3.5V3H15H7.5H7V3.5V14C7 14.4945 6.85338 14.9778 6.57868 15.3889C6.30397 15.8 5.91353 16.1205 5.45671 16.3097C4.99989 16.4989 4.49723 16.5484 4.01228 16.452C3.52732 16.3555 3.08187 16.1174 2.73223 15.7678C2.3826 15.4181 2.1445 14.9727 2.04804 14.4877C1.95158 14.0028 2.00108 13.5001 2.1903 13.0433C2.37952 12.5865 2.69995 12.196 3.11108 11.9213C3.52179 11.6469 4.00458 11.5003 4.49852 11.5C4.93726 11.5028 5.36733 11.6225 5.74447 11.8468ZM2.65224 14.7654L3.09348 14.5826L2.65224 14.7654C2.80362 15.1308 3.05996 15.4432 3.38886 15.6629C3.71776 15.8827 4.10444 16 4.5 16C5.03043 16 5.53914 15.7893 5.91422 15.4142C6.28929 15.0391 6.5 14.5304 6.5 14C6.5 13.6044 6.3827 13.2178 6.16294 12.8889C5.94318 12.56 5.63082 12.3036 5.26537 12.1522C4.89992 12.0009 4.49778 11.9613 4.10982 12.0384C3.72186 12.1156 3.36549 12.3061 3.08579 12.5858C2.80608 12.8655 2.6156 13.2219 2.53843 13.6098C2.46126 13.9978 2.50087 14.3999 2.65224 14.7654ZM11.8371 12.8889C11.6173 13.2178 11.5 13.6044 11.5 14C11.5 14.5304 11.7107 15.0391 12.0858 15.4142C12.4609 15.7893 12.9696 16 13.5 16C13.8956 16 14.2822 15.8827 14.6111 15.6629C14.94 15.4432 15.1964 15.1308 15.3478 14.7654C15.4991 14.3999 15.5387 13.9978 15.4616 13.6098C15.3844 13.2219 15.1939 12.8655 14.9142 12.5858C14.6345 12.3061 14.2781 12.1156 13.8902 12.0384C13.5022 11.9613 13.1001 12.0009 12.7346 12.1522C12.3692 12.3036 12.0568 12.56 11.8371 12.8889Z" stroke="white"/>
<circle cx="6.75" cy="3.5" r="2.5" fill="white" stroke="white"/>
<path d="M6.5 4.75V3.75H5.5C5.4337 3.75 5.37011 3.72366 5.32322 3.67678C5.27634 3.62989 5.25 3.5663 5.25 3.5C5.25 3.4337 5.27634 3.37011 5.32322 3.32322C5.37011 3.27634 5.4337 3.25 5.5 3.25H6.5V2.25C6.5 2.1837 6.52634 2.12011 6.57322 2.07322C6.62011 2.02634 6.6837 2 6.75 2C6.8163 2 6.87989 2.02634 6.92678 2.07322C6.97366 2.12011 7 2.1837 7 2.25V3.25H8C8.0663 3.25 8.12989 3.27634 8.17678 3.32322C8.22366 3.37011 8.25 3.4337 8.25 3.5C8.25 3.5663 8.22366 3.62989 8.17678 3.67678C8.12989 3.72366 8.0663 3.75 8 3.75H7V4.75C7 4.8163 6.97366 4.87989 6.92678 4.92678C6.87989 4.97366 6.8163 5 6.75 5C6.6837 5 6.62011 4.97366 6.57322 4.92678C6.52634 4.87989 6.5 4.8163 6.5 4.75Z" fill="white"/>
</svg>
