<svg width="19" height="19" viewBox="0 0 19 19" fill="none" xmlns="http://www.w3.org/2000/svg">
<path d="M13.4236 11.4789C15.0599 10.4403 15.0599 7.75295 13.4236 6.71438L3.54361 0.443333C1.95494 -0.565542 0 0.748426 0 2.82648V15.3668C0 17.4457 1.95402 18.7588 3.54361 17.7499L13.4236 11.4789ZM19 2.79678C19 2.61776 18.9276 2.44607 18.7989 2.31949C18.6701 2.19291 18.4954 2.12179 18.3133 2.12179C18.1311 2.12179 17.9564 2.19291 17.8276 2.31949C17.6989 2.44607 17.6265 2.61776 17.6265 2.79678V15.3965C17.6265 15.5755 17.6989 15.7472 17.8276 15.8738C17.9564 16.0003 18.1311 16.0715 18.3133 16.0715C18.4954 16.0715 18.6701 16.0003 18.7989 15.8738C18.9276 15.7472 19 15.5755 19 15.3965V2.79678Z" fill="white"/>
</svg>
