<svg width="17" height="13" viewBox="0 0 17 13" fill="none" xmlns="http://www.w3.org/2000/svg">
<g clip-path="url(#clip0_243_20868)">
<path d="M11.8236 12.2994C11.7377 12.401 11.6211 12.458 11.4996 12.458C11.378 12.458 11.2615 12.401 11.1755 12.2994L8.42553 9.04942C8.34205 8.94726 8.29585 8.81043 8.29689 8.66841C8.29794 8.52638 8.34614 8.39053 8.43112 8.2901C8.5161 8.18967 8.63105 8.1327 8.75123 8.13147C8.8714 8.13023 8.98718 8.18483 9.07362 8.2835L11.0412 10.6089V1.08312C11.0412 0.939466 11.0895 0.80169 11.1755 0.700108C11.2614 0.598526 11.378 0.541458 11.4996 0.541458C11.6211 0.541458 11.7377 0.598526 11.8237 0.700108C11.9096 0.80169 11.9579 0.939466 11.9579 1.08312V10.6089L13.9255 8.2835C14.012 8.18483 14.1278 8.13023 14.2479 8.13147C14.3681 8.1327 14.4831 8.18967 14.568 8.2901C14.653 8.39053 14.7012 8.52638 14.7023 8.66841C14.7033 8.81043 14.6571 8.94726 14.5736 9.04942L11.8236 12.2994Z" fill="white"/>
</g>
<g clip-path="url(#clip1_243_20868)">
<path d="M5.17638 0.700585C5.26233 0.599038 5.37889 0.541992 5.50042 0.541992C5.62196 0.541992 5.73852 0.599038 5.82447 0.700585L8.57447 3.95058C8.65795 4.05274 8.70415 4.18957 8.70311 4.33159C8.70206 4.47362 8.65386 4.60947 8.56888 4.7099C8.4839 4.81033 8.36895 4.8673 8.24877 4.86853C8.1286 4.86977 8.01282 4.81517 7.92638 4.7165L5.95876 2.39113L5.95876 11.9169C5.95876 12.0605 5.91047 12.1983 5.82451 12.2999C5.73856 12.4015 5.62198 12.4585 5.50042 12.4585C5.37887 12.4585 5.26229 12.4015 5.17633 12.2999C5.09038 12.1983 5.04209 12.0605 5.04209 11.9169L5.04209 2.39113L3.07447 4.7165C2.98802 4.81517 2.87225 4.86977 2.75207 4.86853C2.6319 4.8673 2.51694 4.81033 2.43196 4.7099C2.34699 4.60947 2.29878 4.47362 2.29774 4.33159C2.2967 4.18957 2.34289 4.05274 2.42638 3.95058L5.17638 0.700585Z" fill="white"/>
</g>
<defs>
<clipPath id="clip0_243_20868">
<rect width="13" height="11" fill="white" transform="matrix(0 -1 1 0 6 13)"/>
</clipPath>
<clipPath id="clip1_243_20868">
<rect width="13" height="11" fill="white" transform="matrix(0 1 -1 0 11 0)"/>
</clipPath>
</defs>
</svg>
