<svg width="13" height="13" viewBox="0 0 13 13" fill="none" xmlns="http://www.w3.org/2000/svg">
<path d="M6.61256 2.89145L6.5 2.81481L6.38744 2.89145L0.2 7.10424V4.53138L6.5 0.241956L12.8 4.53138V7.10424L6.61256 2.89145ZM6.61351 6.10949L6.5 6.03123L6.38649 6.10949L2.45108 8.82244V6.71376L6.5 3.92257L10.5489 6.71376V8.82244L6.61351 6.10949ZM6.61256 8.69646L6.5 8.61982L6.38744 8.69646L4.25195 10.1504V8.69094L6.5 7.14119L8.74805 8.69094V10.1504L6.61256 8.69646ZM6.61256 11.1679L6.5 11.0913L6.38744 11.1679L4.25195 12.6219V11.256L6.5 9.72539L8.74805 11.256V12.6219L6.61256 11.1679Z" stroke="white" stroke-width="0.4"/>
</svg>
